<?xml version="1.0" encoding="UTF-8"?><svg id="Layer_1" xmlns="http://www.w3.org/2000/svg" viewBox="0 0 850.39 850.39"><defs><style>.cls-1{fill:#fff;}.cls-2{fill:#d89999;fill-rule:evenodd;}</style></defs><rect class="cls-1" width="850.39" height="850.39"/><path class="cls-2" d="M553.7,386.76c9.69-20.09,1.41-26.78-11.63-23.61-20.26,4.93-41.76,34.36-49.86,60.43-2.28,7.57-3.65,17.21-2.59,25.63-5.82,2.34-11.49,4.93-17.12,7.51-25.64,11.74-50.3,23.02-84.2,7.05-.49-.23-1.07-.02-1.3.47-.23.49-.02,1.07.47,1.3,34.72,16.36,59.79,4.89,85.85-7.04,5.46-2.5,10.96-5.02,16.6-7.3.9,5.08,2.78,9.58,5.99,12.73,14.77,14.5,33.94-4.97,46.83-22.31,1.72-.14,3.4-.29,5.03-.46,5.04-.52,9.64-1.17,13.68-2.01,1.92-.4,3.68-.92,5.29-1.53,5.03-1.92,8.6-4.81,10.75-8.07,2.18-3.32,2.89-7.03,2.16-10.52-.14-.68-.34-1.35-.58-2-.01-.04-.03-.07-.04-.1-.89-1.83-2.05-3.23-3.43-4.19-1.47-1.03-3.17-1.55-5.02-1.54-1.81,0-3.76.5-5.79,1.49-9.94,4.86-16.37,18.45-22.9,27.04-3.35.26-6.86.48-10.5.67-11.85-.18-22.58,2.09-32.71,5.47.33-7.64,2.31-15.76,3.94-21.05,7.22-23.26,24.31-49.33,40.52-56.91,10.57-4.93,17.44-.18,8.81,18.32-.53,1.23,1.23,1.76,1.76.53h0ZM396.89,422.82c-.52-.19-.79-.76-.6-1.28.19-.52.76-.79,1.28-.6,12.31,4.5,24.25,7.23,35.82,8.19,11.55.95,22.72.14,33.51-2.44,9.63-2.95,14.79-7.09,16.31-11.01.66-1.68.61-3.32-.05-4.78-.69-1.51-2.05-2.85-4-3.91-5.71-3.08-16.2-3.54-29.8,1.73-22.23,9.94-38.92,9.78-47.77,6.19-3.72-1.51-6.14-3.66-7.08-5.97-1.01-2.47-.42-5.06,1.96-7.27,3.66-3.4,11.82-5.9,25.14-5.32,3.68.16,7.48.42,11.33.69,10.09.7,20.45,1.42,28.09.27,5.67-.86,9.51-3.42,10.98-6.16.67-1.25.82-2.52.38-3.64-.45-1.16-1.52-2.2-3.3-2.96-5.13-2.19-15.55-1.91-32.69,4.48h-.02s0,0,0,0c-8.26,2.93-15.22,4.29-20.19,4.2-2.56-.05-4.63-.47-6.11-1.26-1.66-.88-2.63-2.19-2.81-3.9-.1-.94.05-1.98.46-3.13l.02-.04h0c2.56-6.13,10.01-7.16,17.88-8.24,6.22-.86,12.73-1.75,16.81-5.29,1.82-1.57,2.35-3.05,2.06-4.21-.16-.64-.57-1.21-1.14-1.67-.63-.5-1.44-.87-2.36-1.06-2.4-.49-5.45.25-7.64,3.02-.34.43-.97.51-1.4.17-.33-.26-.45-.69-.34-1.07.67-2.89,2.47-5.07,4.93-6.48,2.37-1.36,5.34-2.01,8.49-1.88,3.11.12,6.41,1,9.45,2.67,4.77,2.63,8.94,7.22,10.83,13.96.15.53-.16,1.08-.69,1.23-.53.15-1.08-.16-1.23-.69-1.73-6.17-5.53-10.36-9.87-12.75-2.77-1.52-5.75-2.32-8.57-2.43-2.78-.11-5.38.44-7.42,1.62-.64.37-1.22.79-1.73,1.28,1.89-.82,3.87-.95,5.59-.6,1.23.25,2.33.76,3.2,1.45.91.73,1.57,1.67,1.84,2.75.46,1.85-.22,4.05-2.69,6.2-4.53,3.93-11.33,4.86-17.85,5.76-7.28,1-14.18,1.95-16.3,7.03-.3.83-.41,1.57-.34,2.19.11,1,.72,1.79,1.76,2.35,1.22.65,2.98,1,5.21,1.04,4.74.08,11.46-1.23,19.49-4.09h0c17.68-6.59,28.63-6.79,34.15-4.44,2.31.99,3.75,2.43,4.38,4.08.65,1.68.46,3.53-.48,5.3-1.73,3.24-6.1,6.24-12.44,7.2-7.84,1.19-18.32.46-28.52-.25-3.88-.27-7.72-.54-11.28-.69-12.72-.55-20.38,1.71-23.69,4.79-1.71,1.59-2.16,3.38-1.48,5.05.75,1.83,2.79,3.58,5.99,4.88,8.47,3.44,24.57,3.53,46.23-6.17l.05-.02c14.21-5.52,25.34-4.95,31.49-1.63,2.34,1.26,4,2.93,4.87,4.83.89,1.95.96,4.12.1,6.33-1.73,4.44-7.32,9.05-17.62,12.2h0s-.06.02-.06.02c-11.03,2.64-22.42,3.48-34.17,2.51-11.74-.97-23.85-3.74-36.34-8.31h0ZM409.59,385.65h0s0,0,0,0h0ZM544.27,439.53c5.85-8.09,12.1-20.55,21.36-25.08,1.77-.86,3.43-1.29,4.93-1.3,1.45,0,2.77.4,3.9,1.19,1.09.76,2.02,1.9,2.76,3.41.21.56.37,1.12.49,1.68.62,2.99.01,6.18-1.88,9.05-1.93,2.93-5.18,5.54-9.81,7.31-1.52.58-3.18,1.07-4.99,1.45-3.97.83-8.5,1.47-13.48,1.98-1.08.11-2.18.21-3.29.31h0ZM540.26,441.81c-12.25,15.62-30.27,32.84-38.89,18.77-2.02-3.32-2.76-7.82-2.75-12.63,10.16-3.45,20.9-5.78,32.74-5.6.03,0,.07,0,.1,0,3.03-.15,5.97-.33,8.8-.54Z"/><path class="cls-2" d="M387.47,441.75c-7.94,9.48-16.53,19.45-21.29,23.75-4.4,4.4-10.57,6.7-13.74,0-8.81-19.03,31.71-78.41,22.38-89.68-6.87-8.28-43.7,48.45-56.56,71.18-2.64,5.11-5.99,2.29-6.17-3.7-.35-9.16,11.63-35.41,16.39-50.22,3-8.99,2.11-13.57-5.81-2.64-9.69,13.39-27.31,44.58-34.36,57.79-2.64,4.93-7.05,16.56-9.69,21.5-1.59,3.35-10.4,2.82-7.58-2.99,3.35-7.4,13.92-32.95,15.68-37.18,4.76-10.75,24.84-54.97,13.57-62.2-5.46-3.35-14.8,11.28-16.91,15.68-.35,1.06-2.11.53-1.59-.53,3.17-6.52,13.04-21.32,21.85-19.2,14.45,3.52,8.99,29.42-10.4,71.36,5.46-9.34,19.56-33.3,27.84-45.28,5.99-8.46,16.56-16.39,15.86,0-.88,19.73-20.09,52.86-18.32,52.86.7,0,48.28-83.69,64.49-73.82,18.15,10.92-22.55,72.06-25.02,93.56-.7,5.99,1.41,6.87,6.87,2.29,3.97-3.31,12.61-13.87,20.88-23.77,3.04-3.64,8.5-12.07,12.85-8.94,2.03,1.43,2.78,5.38,3.21,10.38.58,6.79,1.93,11.33,3.52,13.43.51.68,1.01,1.04,1.47,1.09.42.04.88-.22,1.38-.77,1.45-1.62,2.77-5.31,3.63-11.25.81-5.64,2.16-9.09,3.78-10.82,1.12-1.19,2.36-1.64,3.66-1.47h.04c1.22.18,2.43.91,3.57,2.09,6.18,6.37,5.52,17.13,10.74,22.31.67.66,1.29.98,1.86.95.59-.03,1.21-.42,1.87-1.17,4.64-5.24,4.27-14.85,8.61-20.23,1-1.24,2.09-1.93,3.24-2.09,1.18-.16,2.35.24,3.49,1.18,1.61,1.32,3.21,3.79,4.72,7.32,4.72,11.02,8.21,12.95,10.85,10.12,3.1-3.33,5.47-11.99,7.33-21.13.11-.54.63-.89,1.17-.78.54.11.89.63.78,1.17-1.92,9.44-4.42,18.44-7.82,22.1-3.87,4.16-8.53,2.4-14.14-10.7-1.39-3.23-2.79-5.45-4.15-6.57-.7-.57-1.35-.82-1.96-.74-.63.09-1.29.54-1.95,1.36-4.11,5.09-3.5,14.46-8.67,20.3-1.03,1.16-2.12,1.78-3.26,1.84-1.16.06-2.28-.44-3.37-1.53-5.96-5.92-4.86-16.25-10.76-22.34-.84-.87-1.66-1.4-2.43-1.5h-.03c-.65-.09-1.31.17-1.94.85-1.35,1.45-2.52,4.54-3.26,9.74-.91,6.36-2.42,10.41-4.11,12.3-.94,1.06-1.98,1.53-3.05,1.43-1.03-.09-2.01-.73-2.88-1.87-1.81-2.38-3.32-7.3-3.93-14.47-.38-4.47-.97-7.93-2.37-8.92-3.17-1.94-8.52,6.74-10.05,8.56Z"/><path class="cls-2" d="M357.9,492.23c2.37,0,3.75-.84,5.01-2.18l-1.71-1.73c-.96.89-1.81,1.43-3.21,1.43-2.09,0-3.54-1.75-3.54-3.84v-.03c0-2.09,1.48-3.8,3.54-3.8,1.24,0,2.16.52,3.12,1.38l1.71-1.97c-1.12-1.12-2.53-1.89-4.82-1.89-3.75,0-6.37,2.84-6.37,6.32v.03c0,3.51,2.67,6.28,6.27,6.28h0ZM385.67,492.02h2.74l1.12-2.74h5.17l1.12,2.74h2.81l-5.24-12.3h-2.48l-5.24,12.3h0ZM390.49,486.91l1.62-3.96,1.62,3.96h-3.25ZM422.17,492.02h2.69v-3.73l1.41-1.47,3.79,5.2h3.23l-5.2-7.03,4.99-5.18h-3.3l-4.92,5.34v-5.34h-2.69v12.22h0ZM456.57,492.02h9.3v-2.39h-6.63v-2.57h5.76v-2.39h-5.76v-2.48h6.54v-2.39h-9.22v12.22h0ZM494.27,492.2c2.64,0,4.49-1.36,4.49-3.79v-.03c0-2.13-1.4-3-3.87-3.67-2.11-.56-2.64-.79-2.64-1.61v-.03c0-.61.52-1.06,1.57-1.06s2.08.45,3.18,1.2l1.4-2.02c-1.26-.99-2.74-1.55-4.54-1.55-2.51,0-4.28,1.47-4.28,3.68v.03c0,2.41,1.57,3.12,4.05,3.73,2.04.51,2.46.87,2.46,1.55v.03c0,.72-.65,1.15-1.76,1.15-1.4,0-2.53-.58-3.65-1.48l-1.59,1.9c1.47,1.33,3.32,1.95,5.18,1.95Z"/></svg>